<?xml version="1.0" encoding="UTF-8"?>
<svg xmlns="http://www.w3.org/2000/svg" viewBox="0 0 512 512">
  <defs>
    <style>
      .cls-1 {
        fill: #a8b887;
      }

      .cls-2 {
        fill: #425840;
      }

      .cls-3 {
        fill: #577249;
      }
    </style>
  </defs>
  <g id="Layer_11" data-name="Layer 11">
    <path class="cls-2" d="M131.32,114.48s-11.98,46.22-8.01,82.29c3.37,30.66,11.66,89.58,27.28,120.31,13.05,25.66,22.89,53.42,70.31,92.19,35.04,28.65,69.18,37.55,100.95,37.5,83.48-.13,73-105.38,59.47-143.05-13.54-37.67-28.71-50.85-44.53-67.49-16.96-17.84-38.34-43.55-46.53-51.73-8.18-8.19-18.68-17.54-26.13-21.57-31.09-16.8-132.81-48.44-132.81-48.44Z"/>
    <path class="cls-2" d="M302.44,423.8c-.3,22.96-20.92,82.29-3.17,80.73,7-.62,40.89-3.12,55.13-47.39,4.72-14.68-3.15-37.17-6.64-41.54-5.05-6.32-45.17-2.67-45.31,8.2Z"/>
  </g>
  <g id="Layer_9" data-name="Layer 9">
    <polygon class="cls-2" points="233.76 226.72 255.31 203.28 249.29 160.71 295.12 164.74 339.39 136.62 337.3 72.04 301.37 37.66 240.43 32.97 192.74 53.76 173.96 96.51 182.43 162.66 222.12 222.82 233.76 226.72"/>
  </g>
  <g id="Layer_12" data-name="Layer 12">
    <path class="cls-3" d="M371.64,251.19c-2.77,25.95-10.74,75.98-31.82,93.26-1.46,1.2-2.25,3.02-2.14,4.9l3.9,64.25c.3,4.95,6.21,7.33,9.86,3.98,76.73-70.45,48.44-140.14,31.09-168.8-2.92-4.82-10.29-3.19-10.89,2.41Z"/>
    <path class="cls-3" d="M302.33,198.05c1.45,13.33,2.28,40.99-11.54,62.2-1.25,1.92-1.24,4.39-.01,6.32l30.09,47.41c2.85,4.5,9.74,3.2,10.75-2.03,6.15-31.95,16.42-107.79-21.63-120.14-4.06-1.32-8.12,2-7.66,6.24Z"/>
    <path class="cls-3" d="M266.57,245.66c-9.75-6.26-26.51-19.32-31.32-37.56-.27-1.02-.27-2.09.02-3.11,1.21-4.37,4.54-18.68,3.42-40.69-.22-4.26,4.05-7.38,8-5.79,37.35,15.05,32.44,63.86,28.84,83.26-.76,4.11-5.44,6.14-8.96,3.88Z"/>
  </g>
  <g id="Layer_10" data-name="Layer 10">
    <path class="cls-1" d="M289.44,179.21c-53.03-2.33-77.36-28.7-70.94-66.42,4.17-24.48,38.72-44.2,68.75-31.51,28.41,12.01,12.49,73.12-13.87,57.23-3.96-2.13-8.59-6.93-6.62-11.55,1.61-3.49,5.35-5.06,8.26-7.83,4.42-3.69,6.28-10.22,3.19-15.18-4.05-6.58-12.18-8.05-17.02-1.66-2.41,2.87-5.35,5.35-9.19,5.87-6.16,1.12-18.13-.03-15.06,8.82,2.1,4.69,7.83,6.96,9.41,11.88,1.46,4.38.19,9.38.76,13.88.96,10.24,11.97,7.83,20.45,5.71,13.53-2.64,11.26,8.05,19.8,11.46,4.56.94,7.22-4.61,10.5-6.62,5.37-3.63,11.03,5.94,16.13,1.4,2.93-2.85,3.45-7.83,4.87-11.64,1.03-2.81,2.4-5.43,4.57-7.44,3.25-3.02,6.94-2.6,9.58-5.87,1.87-2.28,2.79-5.3,2.64-8.27-.07-6.35-5.84-11.02-6.97-17.04-.98-6.23,7.03-11.47,4.21-19.01-1.53-4.5-6.5-6.17-10.39-8.26-10.19-4.9-8.99-11.93-13.64-20.26-11.3-14.66-19,2.34-29.32-.52-4.87-1.48-8.41-5.94-12.98-8.79-6.38-4.19-16.2-4.44-21.96.85-3.27,3.16-3.59,9.38-7.13,12.35-8.11,5.62-18.83-2.09-27.21-4.07-29.98-8.31-.4,29.42-13.37,42.44-4.57,4.32-15.68,3.86-16.13,10.86-.01,2.89,4.13,6.86,6.53,9.52,7.22,7.28.6,13.65.21,21.66-.02,5.96,6.38,10.63,7.26,16.46.73,11.56-2.43,15.1,8.35,22.36,4.15,2.8,63.78,59.59,106.94,103.82,29.01,29.73,32.21,111.41,30.37,111.64-2.37-.51-6.2-17.37-7.37-21.48-11.72-33.77-32.11-67.67-61.67-88.96C88.86,153.62,189.19,50.18,189.21,50.15c51.31-54.51,129.27-22.52,144.01-2.37,53.1,72.57.02,133.35-43.78,131.42Z"/>
  </g>
  <g id="Layer_8" data-name="Layer 8">
    <path class="cls-3" d="M188.71,227.68c-35.92-2.79-45.82-20.3-67.8-39.83-3.93-3.49-10.14-.49-9.8,4.75,2.16,33.05,24.92,103.38,111.89,86.46,4.99-.97,6.54-7.37,2.49-10.45-16.21-12.35-28.08-31.11-32.13-38.04-.98-1.67-2.72-2.75-4.65-2.9Z"/>
    <path class="cls-3" d="M146.77,307.18c-5.03-1.35-9.26,4.05-6.66,8.56,13.19,22.94,41.85,37.53,58.95,43.94,18.51,6.94,70.21,2.93,91.19.93,4.25-.41,6.66-5.06,4.55-8.77l-24.43-42.95c-1.57-2.76-5.04-3.78-7.85-2.3-35.52,18.77-91.54,7.07-115.76.59Z"/>
    <path class="cls-3" d="M291.9,390.89c-17.53,4.6-53.68,11.01-84.47,12-5.53.18-7.8,7.16-3.42,10.55,28.44,22.04,72.14,29.35,88.64,31.41,3.51.44,6.61-2.3,6.61-5.84v-42.42c0-3.86-3.64-6.67-7.37-5.7Z"/>
    <path class="cls-3" d="M168.02,126.32c-8.72-13.66-9.19-39.59-8.4-56.47.27-5.81-7.14-8.44-10.61-3.77-24.74,33.27-51.1,112.85,22.07,120.14,4.62.46,7.95-4.35,5.86-8.5-10.01-19.82-8.72-40.91-7.98-47.54.15-1.36-.2-2.71-.94-3.86Z"/>
  </g>
</svg>