<?xml version="1.0" encoding="UTF-8"?>
<svg id="Layer_1" data-name="Layer 1" xmlns="http://www.w3.org/2000/svg" viewBox="0 0 244.14 243.61">
  <defs>
    <style>
      .cls-1 {
        fill: #9ba773;
      }

      .cls-2 {
        fill: #4d5a48;
      }
    </style>
  </defs>
  <path class="cls-2" d="M63.89,243.61c-18.14,0-34.72-10.55-42.31-26.9C5.66,183.43-3.85,153.7,1.49,116.94c.25-2.02.68-4.21,1.03-6l.2-1.02c1.32-7.13,3.57-15,6.66-23.33.17-.45.35-.9.55-1.33.32-.71.71-1.66,1.11-2.66.77-1.9,1.63-4.05,2.77-6.3l2.62-5.21c.91-1.85,2.07-3.79,3-5.35.22-.37.43-.72.61-1.03,8.12-13.74,19.1-26.34,31.8-36.54,5.12-4.26,11.4-8.53,17.7-12.06l2.54-1.45c.4-.23.8-.44,1.21-.64l2.6-1.26C92.71,4.42,111.62,0,130.61,0c22.41,0,43.81,6.06,61.89,17.52,27.83,16.88,46.83,45.58,50.83,76.83,3.71,28.93-5.51,56.44-25.97,77.45-16.46,17.15-39.15,26.98-62.26,26.98h0c-2.83,0-5.69-.15-8.49-.46-13.97-1.49-27.19-6.78-38.21-14.84,2.61,8.53,2.7,17.66.16,26.44-3.45,11.96-11.35,21.85-22.24,27.86-6.78,3.78-14.57,5.81-22.43,5.81Z"/>
  <path class="cls-1" d="M41.23,206.24c-13.99-29.2-23.24-55.5-18.36-88.63.18-1.64.73-4.26,1.05-5.91,1.25-6.7,3.39-13.73,5.76-20.11,1.21-2.65,2.23-5.65,3.53-8.23,0,0,2.69-5.33,2.69-5.33.72-1.49,2.12-3.73,2.96-5.18,7.04-11.9,16.41-22.52,27.2-31.15,4.4-3.67,9.86-7.33,14.88-10.13,0,0,2.61-1.49,2.61-1.49,0,0,2.71-1.31,2.71-1.31,30.37-15.15,68.4-14.59,97.25,3.79,43.38,26.18,58.15,85.31,21.03,123.39-13.81,14.41-34.19,22.7-54.23,20.54-20.08-2.14-38.79-14.86-46.78-33.67-5.64-13.3-4.66-29.4,3.13-41.6,8.88-14.01,27.1-22.1,43.23-16.96,10.28,3.13,18.85,11.64,20.9,22.33,1.93,8.61-1.26,18.68-8.62,23.99-7.73,5.87-20.23,5.39-25.89-3.13-4.57-6.49-1.41-17.33,7.04-18.16,2.23-.27,4.66.26,6.34,1.8,4.49,3.93,2.73,11.92-3.47,12.63-6.6.66-7.84-8.85-1.32-9.92-.47.02-1.26.29-1.89.94-2,2.08-.72,4.79,1.83,4.98.07-.06.2-.03.25-.12.16-.05.19-.12.18-.04-.1.37.1,1.28.39,1.44,2.14,2.5,7.13,1.5,9.22-.9,6-6.27,1.33-16.84-6.11-19.64-12.6-5.71-27.81,5.26-28.85,18.53-1.51,10.25,3.69,20.08,11.93,26.16,27.35,20.22,63.18-4.8,63.3-36.2-.02-28.3-25.1-50.14-52.44-52.33-16.56-1.2-33.48,4.3-46.14,15.04-3.71,3.14-7.43,6.94-10.45,10.79-1.44,1.56-3.07,4.27-4.34,5.99-3.2,5.22-6.04,10.88-7.87,16.75-.77,1.99-1.45,5.05-2.01,7.12-.38,2.11-1.04,5.16-1.2,7.27-.04.54-.28,2.19-.34,2.73-.09,2.48-.35,5.74-.18,8.21.02,1.01.03,2.6.18,3.61.31,3.43.76,7.3,1.66,10.59,1.1,4.77,2.81,9.63,4.73,14.15,3.46,8.05,7.41,15.13,11.92,23.33,7.1,12.85,2.43,29.02-10.42,36.12-13.4,7.47-30.57,1.84-36.97-12.1h0Z"/>
</svg>